<svg id="Layer_1" data-name="Layer 1" xmlns="http://www.w3.org/2000/svg" viewBox="0 0 106 138"><path d="M24.65,118.77V36.08C24.7,35.83,30.13,3.5,77.08,3.5c13.55,0,32.19,2.83,44,16.32a35.92,35.92,0,0,1,8.4,16.33l-.83,98.7L113.48,118,96.1,135.43,78.67,118,64.67,137l-14-18.9L24.51,139.92Z" transform="translate(-24 -3)"/><path d="M77.08,4c19.26,0,34.34,5.57,43.62,16.11a35.6,35.6,0,0,1,8.3,16l-.81,97.4-14-15.46-.7-.78-.75.74L96.1,134.72,79.44,118.06l-.82-.82-.69.94L64.67,136.11,51.42,118.18l-.63-.86L50,118,25,138.85l.14-20.08V36.16a35.58,35.58,0,0,1,8.31-16C42.73,9.57,57.82,4,77.08,4m0-1c-48,0-52.93,33.08-52.93,33.08v82.69L24,141l26.61-22.23,14.06,19,14.06-19L96.1,136.14l17.36-17.37,15.71,17.37L130,36.08S125,3,77.08,3Z" transform="translate(-24 -3)"/><circle cx="30.75" cy="48.79" r="16.04" style="fill:#fff"/><path d="M54.75,36.25A15.54,15.54,0,1,1,39.21,51.79,15.56,15.56,0,0,1,54.75,36.25m0-1A16.54,16.54,0,1,0,71.29,51.79,16.54,16.54,0,0,0,54.75,35.25Z" transform="translate(-24 -3)" style="fill:#020202"/><path d="M104.37,67.83a16,16,0,1,1,16-16A16.06,16.06,0,0,1,104.37,67.83Z" transform="translate(-24 -3)" style="fill:#fff"/><path d="M104.37,36.25A15.54,15.54,0,1,1,88.83,51.79a15.55,15.55,0,0,1,15.54-15.54m0-1A16.54,16.54,0,1,0,120.9,51.79a16.53,16.53,0,0,0-16.53-16.54Z" transform="translate(-24 -3)" style="fill:#020202"/><path d="M54.75,57.9a6.12,6.12,0,1,1,6.11-6.11A6.12,6.12,0,0,1,54.75,57.9Z" transform="translate(-24 -3)" style="fill:#050505"/><path d="M54.75,46.17a5.62,5.62,0,1,1-5.62,5.62,5.62,5.62,0,0,1,5.62-5.62m0-1a6.62,6.62,0,1,0,6.61,6.62,6.63,6.63,0,0,0-6.61-6.62Z" transform="translate(-24 -3)"/><path d="M104.37,57.9a6.12,6.12,0,1,1,6.11-6.11A6.12,6.12,0,0,1,104.37,57.9Z" transform="translate(-24 -3)" style="fill:#050505"/><path d="M104.37,46.17a5.62,5.62,0,1,1-5.62,5.62,5.62,5.62,0,0,1,5.62-5.62m0-1A6.62,6.62,0,1,0,111,51.79a6.62,6.62,0,0,0-6.61-6.62Z" transform="translate(-24 -3)"/></svg>